<svg xmlns="http://www.w3.org/2000/svg" width="100" height="100" viewBox="0 0 24 24"><g fill="none" stroke="#BDBDBD" stroke-linecap="round" stroke-linejoin="round" stroke-miterlimit="10"><path d="M3.5 10.5h-2v4l2 1m16-5h2v4l-2 1m-9-5h2m-9 4.5L8 17.5l3.5-2 3.5 2 4.5-2.5m-9 3.5h2m2.459-16.487L11.5 5.5 8.041 2.013"/><path d="M19.5 19l-8 4.5-8-4.5V4l8-3.5 8 3.5z"/><path d="M7 13.5L5.5 12v-2L7 8.5h2l1.5 1.5v2L9 13.5zm6.965 0L12.5 12.035v-2.07L13.965 8.5h2.07L17.5 9.965v2.07L16.035 13.5z"/></g><path fill="none" d="M0 0h24v24H0z"/></svg>